<svg width="18" height="22" viewBox="0 0 18 22" fill="none" xmlns="http://www.w3.org/2000/svg">
<path d="M1.28571 19.5556C1.28571 20.9 2.44286 22 3.85714 22H14.1429C15.5571 22 16.7143 20.9 16.7143 19.5556V7.33333C16.7143 5.98889 15.5571 4.88889 14.1429 4.88889H3.85714C2.44286 4.88889 1.28571 5.98889 1.28571 7.33333V19.5556ZM5.36143 9.98556C5.48037 9.87225 5.62166 9.78236 5.7772 9.72103C5.93273 9.65969 6.09947 9.62812 6.26786 9.62812C6.43624 9.62812 6.60298 9.65969 6.75852 9.72103C6.91405 9.78236 7.05534 9.87225 7.17429 9.98556L9 11.7211L10.8257 9.98556C10.9447 9.8724 11.0861 9.78264 11.2416 9.7214C11.3971 9.66016 11.5638 9.62864 11.7321 9.62864C11.9005 9.62864 12.0672 9.66016 12.2227 9.7214C12.3782 9.78264 12.5195 9.8724 12.6386 9.98556C12.7576 10.0987 12.852 10.233 12.9164 10.3809C12.9809 10.5287 13.014 10.6872 13.014 10.8472C13.014 11.0072 12.9809 11.1657 12.9164 11.3136C12.852 11.4614 12.7576 11.5957 12.6386 11.7089L10.8129 13.4444L12.6386 15.18C12.7576 15.2932 12.852 15.4275 12.9164 15.5753C12.9809 15.7232 13.014 15.8816 13.014 16.0417C13.014 16.2017 12.9809 16.3602 12.9164 16.508C12.852 16.6558 12.7576 16.7902 12.6386 16.9033C12.5195 17.0165 12.3782 17.1062 12.2227 17.1675C12.0672 17.2287 11.9005 17.2602 11.7321 17.2602C11.5638 17.2602 11.3971 17.2287 11.2416 17.1675C11.0861 17.1062 10.9447 17.0165 10.8257 16.9033L9 15.1678L7.17429 16.9033C7.05525 17.0165 6.91394 17.1062 6.75841 17.1675C6.60289 17.2287 6.4362 17.2602 6.26786 17.2602C6.09952 17.2602 5.93283 17.2287 5.7773 17.1675C5.62178 17.1062 5.48046 17.0165 5.36143 16.9033C5.24239 16.7902 5.14797 16.6558 5.08355 16.508C5.01913 16.3602 4.98597 16.2017 4.98597 16.0417C4.98597 15.8816 5.01913 15.7232 5.08355 15.5753C5.14797 15.4275 5.24239 15.2932 5.36143 15.18L7.18714 13.4444L5.36143 11.7089C5.24224 11.5958 5.14768 11.4615 5.08316 11.3137C5.01864 11.1658 4.98543 11.0073 4.98543 10.8472C4.98543 10.6872 5.01864 10.5286 5.08316 10.3808C5.14768 10.2329 5.24224 10.0986 5.36143 9.98556ZM13.5 1.22222L12.5871 0.354444C12.3557 0.134444 12.0214 0 11.6871 0H6.31286C5.97857 0 5.64429 0.134444 5.41286 0.354444L4.5 1.22222H1.28571C0.578571 1.22222 0 1.77222 0 2.44444C0 3.11667 0.578571 3.66667 1.28571 3.66667H16.7143C17.4214 3.66667 18 3.11667 18 2.44444C18 1.77222 17.4214 1.22222 16.7143 1.22222H13.5Z" fill="#EB5757"/>
</svg>
