<svg width="96" height="120" viewBox="0 0 96 120" fill="none" xmlns="http://www.w3.org/2000/svg">
<rect x="0.497192" width="95" height="120" fill="white"/>
<rect x="0.997192" y="0.5" width="94" height="119" stroke="#2E2E2E" stroke-opacity="0.5"/>
<rect x="83.4972" y="120" width="120" height="12" transform="rotate(-90 83.4972 120)" fill="#00B152"/>
<path d="M67.5852 66.112C67.0719 66.112 66.5539 66.0933 66.0312 66.056C65.5085 66.028 65.0512 65.9627 64.6592 65.86V56.438C64.8645 56.4007 65.0839 56.368 65.3172 56.34C65.5505 56.3027 65.7885 56.2747 66.0312 56.256C66.2739 56.2373 66.5119 56.2233 66.7452 56.214C66.9879 56.2047 67.2165 56.2 67.4312 56.2C68.0192 56.2 68.5652 56.2467 69.0692 56.34C69.5732 56.424 70.0072 56.5687 70.3712 56.774C70.7445 56.9793 71.0339 57.25 71.2392 57.586C71.4445 57.922 71.5472 58.3373 71.5472 58.832C71.5472 59.2893 71.4352 59.6813 71.2112 60.008C70.9965 60.3347 70.6932 60.596 70.3012 60.792C70.8892 60.988 71.3232 61.2773 71.6032 61.66C71.8832 62.0427 72.0232 62.528 72.0232 63.116C72.0232 64.1147 71.6592 64.866 70.9312 65.37C70.2032 65.8647 69.0879 66.112 67.5852 66.112ZM66.3952 61.632V64.586C66.5912 64.6047 66.8012 64.6187 67.0252 64.628C67.2492 64.6373 67.4545 64.642 67.6412 64.642C68.0052 64.642 68.3412 64.6187 68.6492 64.572C68.9665 64.5253 69.2372 64.446 69.4612 64.334C69.6945 64.2127 69.8765 64.054 70.0072 63.858C70.1472 63.662 70.2172 63.41 70.2172 63.102C70.2172 62.5513 70.0165 62.1687 69.6152 61.954C69.2139 61.7393 68.6585 61.632 67.9492 61.632H66.3952ZM66.3952 60.246H67.6412C68.3132 60.246 68.8405 60.1527 69.2232 59.966C69.6059 59.77 69.7972 59.4247 69.7972 58.93C69.7972 58.4633 69.5965 58.132 69.1952 57.936C68.8032 57.74 68.2899 57.642 67.6552 57.642C67.3845 57.642 67.1419 57.6467 66.9272 57.656C66.7219 57.6653 66.5445 57.6793 66.3952 57.698V60.246Z" fill="#00B152"/>
</svg>
