<svg width="95" height="120" viewBox="0 0 95 120" fill="none" xmlns="http://www.w3.org/2000/svg">
<rect x="-0.00564575" width="95" height="120" fill="white"/>
<rect x="0.494354" y="0.5" width="94" height="119" stroke="#2E2E2E" stroke-opacity="0.5"/>
<rect x="-0.00564575" y="108" width="95" height="12" fill="#00B152"/>
<path d="M48.4684 95.21C47.7404 95.21 47.087 95.098 46.5084 94.874C45.9297 94.65 45.4397 94.3233 45.0384 93.894C44.637 93.4553 44.329 92.9233 44.1144 92.298C43.8997 91.6727 43.7924 90.954 43.7924 90.142C43.7924 89.33 43.9137 88.6113 44.1564 87.986C44.4084 87.3607 44.749 86.8333 45.1784 86.404C45.6077 85.9653 46.1117 85.634 46.6904 85.41C47.269 85.186 47.8897 85.074 48.5524 85.074C48.9537 85.074 49.3177 85.1067 49.6444 85.172C49.971 85.228 50.2557 85.2933 50.4984 85.368C50.741 85.4427 50.9417 85.522 51.1004 85.606C51.259 85.69 51.371 85.7507 51.4364 85.788L50.9184 87.23C50.6944 87.09 50.3724 86.9593 49.9524 86.838C49.5417 86.7073 49.0937 86.642 48.6084 86.642C48.1884 86.642 47.7964 86.7167 47.4324 86.866C47.0684 87.006 46.751 87.2207 46.4804 87.51C46.219 87.7993 46.0137 88.1633 45.8644 88.602C45.715 89.0407 45.6404 89.5493 45.6404 90.128C45.6404 90.6413 45.6964 91.1127 45.8084 91.542C45.9297 91.9713 46.1117 92.3447 46.3544 92.662C46.597 92.97 46.905 93.2127 47.2784 93.39C47.6517 93.558 48.0997 93.642 48.6224 93.642C49.2477 93.642 49.7564 93.5813 50.1484 93.46C50.5404 93.3293 50.8437 93.208 51.0584 93.096L51.5344 94.538C51.4224 94.6127 51.2684 94.6873 51.0724 94.762C50.8857 94.8367 50.6617 94.9113 50.4004 94.986C50.139 95.0513 49.845 95.1027 49.5184 95.14C49.1917 95.1867 48.8417 95.21 48.4684 95.21Z" fill="#00B152"/>
</svg>
