<svg width="95" height="120" viewBox="0 0 95 120" fill="none" xmlns="http://www.w3.org/2000/svg">
<rect width="95" height="120" fill="white"/>
<rect x="0.5" y="0.5" width="94" height="119" stroke="#2E2E2E" stroke-opacity="0.5"/>
<rect width="95" height="12" fill="#00B152"/>
<path d="M49.602 35C49.4713 34.6173 49.336 34.2393 49.196 33.866C49.056 33.4927 48.9207 33.11 48.79 32.718H44.702C44.5713 33.11 44.436 33.4973 44.296 33.88C44.1653 34.2533 44.0347 34.6267 43.904 35H42.07C42.434 33.964 42.7793 33.0073 43.106 32.13C43.4327 31.2527 43.75 30.422 44.058 29.638C44.3753 28.854 44.688 28.1073 44.996 27.398C45.304 26.6887 45.6213 25.9887 45.948 25.298H47.614C47.9407 25.9887 48.258 26.6887 48.566 27.398C48.874 28.1073 49.182 28.854 49.49 29.638C49.8073 30.422 50.1293 31.2527 50.456 32.13C50.792 33.0073 51.142 33.964 51.506 35H49.602ZM46.746 27.174C46.5313 27.6687 46.284 28.2707 46.004 28.98C45.7333 29.6893 45.4487 30.4593 45.15 31.29H48.342C48.0433 30.4593 47.754 29.6847 47.474 28.966C47.194 28.2473 46.9513 27.65 46.746 27.174Z" fill="#00B152"/>
</svg>
