<svg width="96" height="120" viewBox="0 0 96 120" fill="none" xmlns="http://www.w3.org/2000/svg">
<rect x="0.491516" width="95" height="120" fill="white"/>
<rect x="0.991516" y="0.5" width="94" height="119" stroke="#2E2E2E" stroke-opacity="0.5"/>
<rect x="0.491516" y="120" width="120" height="12" transform="rotate(-90 0.491516 120)" fill="#00B152"/>
<path d="M25.4175 63.544C25.5202 63.5533 25.6555 63.5627 25.8235 63.572C25.9915 63.572 26.2202 63.572 26.5095 63.572C27.6948 63.572 28.5768 63.2733 29.1555 62.676C29.7435 62.0693 30.0375 61.2247 30.0375 60.142C30.0375 59.0407 29.7528 58.196 29.1835 57.608C28.6142 57.02 27.7322 56.726 26.5375 56.726C26.0148 56.726 25.6415 56.74 25.4175 56.768V63.544ZM31.8855 60.142C31.8855 60.982 31.7548 61.7147 31.4935 62.34C31.2322 62.956 30.8588 63.474 30.3735 63.894C29.8975 64.3047 29.3188 64.6127 28.6375 64.818C27.9655 65.014 27.2188 65.112 26.3975 65.112C26.0055 65.112 25.5622 65.0933 25.0675 65.056C24.5728 65.028 24.1015 64.9627 23.6535 64.86V55.438C24.1015 55.3353 24.5775 55.27 25.0815 55.242C25.5855 55.214 26.0335 55.2 26.4255 55.2C27.2375 55.2 27.9795 55.298 28.6515 55.494C29.3235 55.6807 29.8975 55.9793 30.3735 56.39C30.8588 56.7913 31.2322 57.3047 31.4935 57.93C31.7548 58.546 31.8855 59.2833 31.8855 60.142Z" fill="#00B152"/>
</svg>
